<!--
Add to HTML Code
<svg>
    <use xlink:href="/img/sprites.svg#icon-list"></use>
</svg>
-->
<svg>
<!-- width="34" height="36" -->
  <symbol id="icon-timer" viewBox="0 0 30 30" fill="none" xmlns="http://www.w3.org/2000/svg">
    <path d="M15.9548 3.03564C13.4826 3.03564 11.0658 3.76876 9.01021 5.14227C6.9546 6.51579 5.35244 8.46802 4.40635 10.7521C3.46025 13.0362 3.21271 15.5495 3.69502 17.9743C4.17734 20.399 5.36785 22.6263 7.116 24.3745C8.86416 26.1226 11.0914 27.3131 13.5162 27.7955C15.941 28.2778 18.4543 28.0302 20.7384 27.0841C23.0225 26.138 24.9747 24.5359 26.3482 22.4803C27.7217 20.4247 28.4548 18.0079 28.4548 15.5356C28.4548 13.8941 28.1315 12.2687 27.5033 10.7521C26.8752 9.23553 25.9544 7.85754 24.7937 6.69681C23.6329 5.53608 22.255 4.61533 20.7384 3.98715C19.2218 3.35897 17.5964 3.03564 15.9548 3.03564ZM15.9548 25.5356C13.977 25.5356 12.0436 24.9492 10.3991 23.8503C8.75465 22.7515 7.47292 21.1897 6.71604 19.3625C5.95917 17.5352 5.76113 15.5246 6.14699 13.5847C6.53284 11.6449 7.48525 9.8631 8.88377 8.46458C10.2823 7.06605 12.0641 6.11364 14.0039 5.72779C15.9437 5.34194 17.9544 5.53997 19.7817 6.29685C21.6089 7.05373 23.1707 8.33545 24.2695 9.97994C25.3683 11.6244 25.9548 13.5578 25.9548 15.5356C25.9548 18.1878 24.9013 20.7313 23.0259 22.6067C21.1505 24.4821 18.607 25.5356 15.9548 25.5356Z" fill="currentColor"/>
    <path d="M20.9548 14.2856H17.2048V10.5356C17.2048 10.2041 17.0731 9.88618 16.8387 9.65176C16.6043 9.41734 16.2864 9.28564 15.9548 9.28564C15.6233 9.28564 15.3054 9.41734 15.071 9.65176C14.8365 9.88618 14.7048 10.2041 14.7048 10.5356V15.5356C14.7048 15.8672 14.8365 16.1851 15.071 16.4195C15.3054 16.6539 15.6233 16.7856 15.9548 16.7856H20.9548C21.2864 16.7856 21.6043 16.6539 21.8387 16.4195C22.0731 16.1851 22.2048 15.8672 22.2048 15.5356C22.2048 15.2041 22.0731 14.8862 21.8387 14.6518C21.6043 14.4173 21.2864 14.2856 20.9548 14.2856Z" fill="currentColor"/>
  </symbol>

  <symbol id="icon-list" viewBox="0 0 30 30" fill="none" xmlns="http://www.w3.org/2000/svg">
    <path d="M5 10C5.69036 10 6.25 9.44036 6.25 8.75C6.25 8.05964 5.69036 7.5 5 7.5C4.30964 7.5 3.75 8.05964 3.75 8.75C3.75 9.44036 4.30964 10 5 10Z" fill="currentColor"/>
    <path d="M5 16.25C5.69036 16.25 6.25 15.6904 6.25 15C6.25 14.3096 5.69036 13.75 5 13.75C4.30964 13.75 3.75 14.3096 3.75 15C3.75 15.6904 4.30964 16.25 5 16.25Z" fill="currentColor"/>
    <path d="M5 22.5C5.69036 22.5 6.25 21.9404 6.25 21.25C6.25 20.5596 5.69036 20 5 20C4.30964 20 3.75 20.5596 3.75 21.25C3.75 21.9404 4.30964 22.5 5 22.5Z" fill="currentColor"/>
    <path d="M25.075 13.75H9.925C9.27607 13.75 8.75 14.2761 8.75 14.925V15.075C8.75 15.7239 9.27607 16.25 9.925 16.25H25.075C25.7239 16.25 26.25 15.7239 26.25 15.075V14.925C26.25 14.2761 25.7239 13.75 25.075 13.75Z" fill="currentColor"/>
    <path d="M25.075 20H9.925C9.27607 20 8.75 20.5261 8.75 21.175V21.325C8.75 21.9739 9.27607 22.5 9.925 22.5H25.075C25.7239 22.5 26.25 21.9739 26.25 21.325V21.175C26.25 20.5261 25.7239 20 25.075 20Z" fill="currentColor"/>
    <path d="M25.075 7.5H9.925C9.27607 7.5 8.75 8.02607 8.75 8.675V8.825C8.75 9.47393 9.27607 10 9.925 10H25.075C25.7239 10 26.25 9.47393 26.25 8.825V8.675C26.25 8.02607 25.7239 7.5 25.075 7.5Z" fill="currentColor"/>
  </symbol>

  <symbol id="icon-stats" viewBox="0 0 30 30" fill="none" xmlns="http://www.w3.org/2000/svg">
    <path d="M15 5C14.6685 5 14.3505 5.1317 14.1161 5.36612C13.8817 5.60054 13.75 5.91848 13.75 6.25V25C13.75 25.3315 13.8817 25.6495 14.1161 25.8839C14.3505 26.1183 14.6685 26.25 15 26.25C15.3315 26.25 15.6495 26.1183 15.8839 25.8839C16.1183 25.6495 16.25 25.3315 16.25 25V6.25C16.25 5.91848 16.1183 5.60054 15.8839 5.36612C15.6495 5.1317 15.3315 5 15 5Z" fill="currentColor"/>
    <path d="M23.75 15.0001C23.4185 15.0001 23.1005 15.1318 22.8661 15.3662C22.6317 15.6007 22.5 15.9186 22.5 16.2501V25.0001C22.5 25.3316 22.6317 25.6496 22.8661 25.884C23.1005 26.1184 23.4185 26.2501 23.75 26.2501C24.0815 26.2501 24.3995 26.1184 24.6339 25.884C24.8683 25.6496 25 25.3316 25 25.0001V16.2501C25 15.9186 24.8683 15.6007 24.6339 15.3662C24.3995 15.1318 24.0815 15.0001 23.75 15.0001Z" fill="currentColor"/>
    <path d="M6.25 10C5.91848 10 5.60054 10.1317 5.36612 10.3661C5.1317 10.6005 5 10.9185 5 11.25V25C5 25.3315 5.1317 25.6495 5.36612 25.8839C5.60054 26.1183 5.91848 26.25 6.25 26.25C6.58152 26.25 6.89946 26.1183 7.13388 25.8839C7.3683 25.6495 7.5 25.3315 7.5 25V11.25C7.5 10.9185 7.3683 10.6005 7.13388 10.3661C6.89946 10.1317 6.58152 10 6.25 10Z" fill="currentColor"/>
  </symbol>

  <symbol id="icon-trash" viewBox="0 0 31 31" fill="none" xmlns="http://www.w3.org/2000/svg">
    <path d="M26.5073 7.60243H20.2573V5.51493C20.228 4.71471 19.8826 3.95875 19.2968 3.4128C18.711 2.86684 17.9326 2.57542 17.1323 2.60243H13.3823C12.582 2.57542 11.8037 2.86684 11.2179 3.4128C10.6321 3.95875 10.2866 4.71471 10.2573 5.51493V7.60243H4.00732C3.6758 7.60243 3.35786 7.73413 3.12344 7.96855C2.88902 8.20297 2.75732 8.52091 2.75732 8.85243C2.75732 9.18395 2.88902 9.50189 3.12344 9.73632C3.35786 9.97074 3.6758 10.1024 4.00732 10.1024H5.25732V23.8524C5.25732 24.847 5.65241 25.8008 6.35567 26.5041C7.05894 27.2073 8.01276 27.6024 9.00732 27.6024H21.5073C22.5019 27.6024 23.4557 27.2073 24.159 26.5041C24.8622 25.8008 25.2573 24.847 25.2573 23.8524V10.1024H26.5073C26.8388 10.1024 27.1568 9.97074 27.3912 9.73632C27.6256 9.50189 27.7573 9.18395 27.7573 8.85243C27.7573 8.52091 27.6256 8.20297 27.3912 7.96855C27.1568 7.73413 26.8388 7.60243 26.5073 7.60243ZM12.7573 5.51493C12.7573 5.31493 13.0198 5.10243 13.3823 5.10243H17.1323C17.4948 5.10243 17.7573 5.31493 17.7573 5.51493V7.60243H12.7573V5.51493ZM22.7573 23.8524C22.7573 24.184 22.6256 24.5019 22.3912 24.7363C22.1568 24.9707 21.8388 25.1024 21.5073 25.1024H9.00732C8.6758 25.1024 8.35786 24.9707 8.12344 24.7363C7.88902 24.5019 7.75732 24.184 7.75732 23.8524V10.1024H22.7573V23.8524Z" fill="currentColor"/>
    <path d="M11.5073 21.3523C11.8388 21.3523 12.1568 21.2206 12.3912 20.9862C12.6256 20.7518 12.7573 20.4338 12.7573 20.1023V15.1023C12.7573 14.7708 12.6256 14.4528 12.3912 14.2184C12.1568 13.984 11.8388 13.8523 11.5073 13.8523C11.1758 13.8523 10.8579 13.984 10.6234 14.2184C10.389 14.4528 10.2573 14.7708 10.2573 15.1023V20.1023C10.2573 20.4338 10.389 20.7518 10.6234 20.9862C10.8579 21.2206 11.1758 21.3523 11.5073 21.3523Z" fill="currentColor"/>
    <path d="M19.0073 21.3523C19.3388 21.3523 19.6568 21.2206 19.8912 20.9862C20.1256 20.7518 20.2573 20.4338 20.2573 20.1023V15.1023C20.2573 14.7708 20.1256 14.4528 19.8912 14.2184C19.6568 13.984 19.3388 13.8523 19.0073 13.8523C18.6758 13.8523 18.3579 13.984 18.1234 14.2184C17.889 14.4528 17.7573 14.7708 17.7573 15.1023V20.1023C17.7573 20.4338 17.889 20.7518 18.1234 20.9862C18.3579 21.2206 18.6758 21.3523 19.0073 21.3523Z" fill="currentColor"/>
  </symbol>

  <symbol id="icon-plus" viewBox="0 0 24 24" fill="none" xmlns="http://www.w3.org/2000/svg">
    <path d="M19 13H13V19H11V13H5V11H11V5H13V11H19V13Z" fill="currentColor"/>
  </symbol>

  <symbol id="icon-book" viewBox="0 0 24 24" fill="none" xmlns="http://www.w3.org/2000/svg">
    <path d="M19.5 1.5H4.5C4.08516 1.5 3.75 1.83516 3.75 2.25V21.75C3.75 22.1648 4.08516 22.5 4.5 22.5H19.5C19.9148 22.5 20.25 22.1648 20.25 21.75V2.25C20.25 1.83516 19.9148 1.5 19.5 1.5ZM13.4062 3.1875H15.6562V8.10703L14.5664 7.3125L13.4062 8.14219V3.1875ZM18.5625 20.8125H5.4375V3.1875H12V10.1461C12 10.2234 12.0234 10.3008 12.0703 10.3641C12.0988 10.4043 12.1349 10.4385 12.1767 10.4646C12.2184 10.4908 12.2649 10.5084 12.3135 10.5165C12.3622 10.5245 12.4119 10.5229 12.4598 10.5116C12.5078 10.5003 12.553 10.4797 12.593 10.4508L14.557 9.04688L16.4648 10.4391C16.5281 10.4859 16.6055 10.5117 16.6852 10.5117C16.8914 10.5117 17.0602 10.343 17.0602 10.1367V3.1875H18.5602V20.8125H18.5625Z" fill="currentColor"/>
  </symbol>

  <symbol id="icon-minus" viewBox="0 0 24 24" fill="none" xmlns="http://www.w3.org/2000/svg">
    <path fill-rule="evenodd" clip-rule="evenodd" d="M4.5 12C4.5 11.5858 4.83579 11.25 5.25 11.25H18.75C19.1642 11.25 19.5 11.5858 19.5 12C19.5 12.4142 19.1642 12.75 18.75 12.75H5.25C4.83579 12.75 4.5 12.4142 4.5 12Z" fill="currentColor"/>
  </symbol>

  <symbol id="icon-options" viewBox="0 0 24 24" fill="none" xmlns="http://www.w3.org/2000/svg">
    <path d="M12 10C10.9 10 10 10.9 10 12C10 13.1 10.9 14 12 14C13.1 14 14 13.1 14 12C14 10.9 13.1 10 12 10ZM12 4C10.9 4 10 4.9 10 6C10 7.1 10.9 8 12 8C13.1 8 14 7.1 14 6C14 4.9 13.1 4 12 4ZM12 16C10.9 16 10 16.9 10 18C10 19.1 10.9 20 12 20C13.1 20 14 19.1 14 18C14 16.9 13.1 16 12 16Z" fill="currentColor"/>
  </symbol>

  <!-- new icons -->
  <!-- https://www.figma.com/file/LHZQwepYIu1TzvtEWvWw8U/Import-React-Icons-(Community)?type=design&node-id=15-8994&mode=design&t=LYJpe8s5mQcgLUIY-0 -->
  <!-- <symbol id="icon-edit" viewBox="0 0 24 24" fill="none" xmlns="http://www.w3.org/2000/svg">
    <path fill-rule="evenodd" clip-rule="evenodd" d="M1.87868 3.87868C2.44129 3.31607 3.20435 3 4 3H11C11.5523 3 12 3.44772 12 4C12 4.55228 11.5523 5 11 5H4C3.73478 5 3.48043 5.10536 3.29289 5.29289C3.10536 5.48043 3 5.73478 3 6V20C3 20.2652 3.10536 20.5196 3.29289 20.7071C3.48043 20.8946 3.73478 21 4 21H18C18.2652 21 18.5196 20.8946 18.7071 20.7071C18.8946 20.5196 19 20.2652 19 20V13C19 12.4477 19.4477 12 20 12C20.5523 12 21 12.4477 21 13V20C21 20.7957 20.6839 21.5587 20.1213 22.1213C19.5587 22.6839 18.7957 23 18 23H4C3.20435 23 2.44129 22.6839 1.87868 22.1213C1.31607 21.5587 1 20.7957 1 20V6C1 5.20435 1.31607 4.44129 1.87868 3.87868Z" fill="currentColor"/>
    <path fill-rule="evenodd" clip-rule="evenodd" d="M20 2.87891C19.7026 2.87891 19.4174 2.99705 19.2071 3.20733L9.90299 12.5115L9.37439 14.6259L11.4888 14.0973L20.7929 4.79312C21.0032 4.58283 21.1213 4.29762 21.1213 4.00023C21.1213 3.70283 21.0032 3.41762 20.7929 3.20733C20.5826 2.99705 20.2974 2.87891 20 2.87891ZM17.7929 1.79312C18.3783 1.20776 19.1722 0.878906 20 0.878906C20.8278 0.878906 21.6218 1.20776 22.2071 1.79312C22.7925 2.37848 23.1213 3.1724 23.1213 4.00023C23.1213 4.82805 22.7925 5.62197 22.2071 6.20733L12.7071 15.7073C12.579 15.8355 12.4184 15.9264 12.2426 15.9704L8.24256 16.9704C7.90178 17.0556 7.54129 16.9557 7.29291 16.7073C7.04453 16.459 6.94468 16.0985 7.02988 15.7577L8.02988 11.7577C8.07384 11.5819 8.16476 11.4213 8.29291 11.2931L17.7929 1.79312Z" fill="currentColor"/>
  </symbol> -->


  <symbol id="icon-close" viewBox="0 0 24 24" fill="none" xmlns="http://www.w3.org/2000/svg">
    <path fill-rule="evenodd" clip-rule="evenodd" d="M18.7071 5.29289C19.0976 5.68342 19.0976 6.31658 18.7071 6.70711L6.70711 18.7071C6.31658 19.0976 5.68342 19.0976 5.29289 18.7071C4.90237 18.3166 4.90237 17.6834 5.29289 17.2929L17.2929 5.29289C17.6834 4.90237 18.3166 4.90237 18.7071 5.29289Z" fill="currentColor"/>
    <path fill-rule="evenodd" clip-rule="evenodd" d="M5.29289 5.29289C5.68342 4.90237 6.31658 4.90237 6.70711 5.29289L18.7071 17.2929C19.0976 17.6834 19.0976 18.3166 18.7071 18.7071C18.3166 19.0976 17.6834 19.0976 17.2929 18.7071L5.29289 6.70711C4.90237 6.31658 4.90237 5.68342 5.29289 5.29289Z" fill="currentColor"/>
  </symbol>

  <symbol id="icon-plus" viewBox="0 0 24 24" fill="none" xmlns="http://www.w3.org/2000/svg">
    <path fill-rule="evenodd" clip-rule="evenodd" d="M12 4C12.5523 4 13 4.44772 13 5V19C13 19.5523 12.5523 20 12 20C11.4477 20 11 19.5523 11 19V5C11 4.44772 11.4477 4 12 4Z" fill="currentColor"/>
    <path fill-rule="evenodd" clip-rule="evenodd" d="M4 12C4 11.4477 4.44772 11 5 11H19C19.5523 11 20 11.4477 20 12C20 12.5523 19.5523 13 19 13H5C4.44772 13 4 12.5523 4 12Z" fill="currentColor"/>
  </symbol>

  <symbol id="icon-tag" viewBox="0 0 24 24" fill="none" xmlns="http://www.w3.org/2000/svg">
    <path fill-rule="evenodd" clip-rule="evenodd" d="M1 2C1 1.44772 1.44772 1 2 1H12C12.2652 1 12.5196 1.10536 12.7071 1.29289L21.2992 9.885C21.858 10.4471 22.1716 11.2074 22.1716 12C22.1716 12.7926 21.858 13.5529 21.2992 14.115L21.2971 14.1171L14.1275 21.2867C14.1274 21.2868 14.1276 21.2866 14.1275 21.2867C13.849 21.5655 13.5178 21.787 13.1538 21.9379C12.7896 22.0889 12.3992 22.1666 12.005 22.1666C11.6108 22.1666 11.2204 22.0889 10.8562 21.9379C10.4921 21.787 10.1613 21.5658 9.88271 21.2869C9.88264 21.2869 9.88278 21.287 9.88271 21.2869L1.29331 12.7075C1.10552 12.5199 1 12.2654 1 12V2ZM3 3V11.5854L11.2967 19.8725L11.2975 19.8733C11.3904 19.9663 11.5007 20.04 11.6221 20.0903C11.7435 20.1407 11.8736 20.1666 12.005 20.1666C12.1364 20.1666 12.2665 20.1407 12.3879 20.0903C12.5093 20.04 12.6196 19.9663 12.7125 19.8733L19.8808 12.705C19.8811 12.7047 19.8814 12.7044 19.8817 12.7041C20.0674 12.5168 20.1716 12.2638 20.1716 12C20.1716 11.7362 20.0674 11.4832 19.8817 11.2959C19.8814 11.2956 19.8811 11.2953 19.8808 11.295L11.5858 3H3Z" fill="currentColor"/>
    <path fill-rule="evenodd" clip-rule="evenodd" d="M6 7C6 6.44772 6.44772 6 7 6H7.01C7.56228 6 8.01 6.44772 8.01 7C8.01 7.55228 7.56228 8 7.01 8H7C6.44772 8 6 7.55228 6 7Z" fill="currentColor"/>
  </symbol>

  <symbol id="icon-flag" viewBox="0 0 24 24" fill="none" xmlns="http://www.w3.org/2000/svg">
    <path d="M22.167 0.1275C22.2693 0.195956 22.3532 0.288554 22.4113 0.397119C22.4694 0.505684 22.4999 0.626877 22.5 0.75V12C22.5 12.1498 22.4551 12.2961 22.3711 12.4202C22.2872 12.5442 22.168 12.6403 22.029 12.696L22.0245 12.6975L22.0155 12.702L21.981 12.7155C21.7838 12.7939 21.5853 12.8689 21.3855 12.9405C20.9895 13.083 20.439 13.275 19.815 13.4655C18.591 13.8435 16.9965 14.25 15.75 14.25C14.4795 14.25 13.428 13.83 12.513 13.4625L12.471 13.4475C11.52 13.065 10.71 12.75 9.75 12.75C8.7 12.75 7.293 13.095 6.0945 13.4655C5.55788 13.6327 5.02616 13.8153 4.5 14.013V23.25C4.5 23.4489 4.42098 23.6397 4.28033 23.7803C4.13968 23.921 3.94891 24 3.75 24C3.55109 24 3.36032 23.921 3.21967 23.7803C3.07902 23.6397 3 23.4489 3 23.25V0.75C3 0.551088 3.07902 0.360322 3.21967 0.21967C3.36032 0.0790176 3.55109 0 3.75 0C3.94891 0 4.13968 0.0790176 4.28033 0.21967C4.42098 0.360322 4.5 0.551088 4.5 0.75V1.173C4.839 1.0545 5.244 0.918 5.685 0.783C6.909 0.408 8.505 0 9.75 0C11.01 0 12.036 0.4155 12.9315 0.7785L12.996 0.8055C13.929 1.182 14.742 1.5 15.75 1.5C16.8 1.5 18.207 1.155 19.4055 0.7845C20.0885 0.571218 20.7634 0.33306 21.429 0.0705L21.4575 0.06L21.4635 0.057H21.465" fill="currentColor"/>
  </symbol>

  <symbol id="icon-alert" viewBox="0 0 24 24" fill="none" xmlns="http://www.w3.org/2000/svg">
    <path d="M10.6 22.4002L1.6 13.4002C0.8 12.6002 0.8 11.3502 1.6 10.5502L10.6 1.5502C11.4 0.750195 12.65 0.750195 13.45 1.5502L22.45 10.5502C23.25 11.3502 23.25 12.6002 22.45 13.4002L13.45 22.4002C12.65 23.2002 11.35 23.2002 10.6 22.4002Z" fill="#F44336"/>
    <path d="M10.7998 16.35C10.7998 16.2 10.8498 16.05 10.8998 15.9C10.9498 15.75 11.0498 15.65 11.1498 15.55C11.2498 15.45 11.3998 15.35 11.5498 15.3C11.6998 15.25 11.8498 15.2 12.0498 15.2C12.2498 15.2 12.3998 15.25 12.5498 15.3C12.6998 15.35 12.8498 15.45 12.9498 15.55C13.0498 15.65 13.1498 15.75 13.1998 15.9C13.2498 16.05 13.2998 16.2 13.2998 16.35C13.2998 16.5 13.2498 16.65 13.1998 16.8C13.1498 16.95 13.0498 17.05 12.9498 17.15C12.8498 17.25 12.6998 17.35 12.5498 17.4C12.3998 17.45 12.2498 17.5 12.0498 17.5C11.8498 17.5 11.6998 17.45 11.5498 17.4C11.3998 17.35 11.2998 17.25 11.1498 17.15C11.0498 17.05 10.9498 16.95 10.8998 16.8C10.8498 16.65 10.7998 16.55 10.7998 16.35ZM12.8998 14.05H11.0998L10.8498 6.5H13.1498L12.8998 14.05Z" fill="white"/>
  </symbol>

  <symbol id="icon-check" viewBox="0 0 24 24" fill="none" xmlns="http://www.w3.org/2000/svg">
    <path d="M16.455 7.45498C16.6663 7.25381 16.9475 7.1426 17.2392 7.14481C17.531 7.14702 17.8104 7.26247 18.0187 7.46681C18.2269 7.67115 18.3476 7.9484 18.3553 8.24004C18.363 8.53169 18.2571 8.81492 18.06 9.02998L12.075 16.515C11.9721 16.6258 11.8479 16.7148 11.7098 16.7765C11.5717 16.8383 11.4226 16.8715 11.2714 16.8743C11.1201 16.8771 10.9699 16.8494 10.8296 16.7928C10.6894 16.7362 10.5619 16.6519 10.455 16.545L6.48599 12.576C6.37546 12.473 6.28681 12.3488 6.22532 12.2108C6.16383 12.0728 6.13077 11.9238 6.1281 11.7728C6.12544 11.6217 6.15323 11.4717 6.20981 11.3316C6.26639 11.1915 6.35061 11.0643 6.45743 10.9574C6.56426 10.8506 6.69151 10.7664 6.8316 10.7098C6.97168 10.6532 7.12172 10.6254 7.27278 10.6281C7.42383 10.6308 7.5728 10.6638 7.7108 10.7253C7.8488 10.7868 7.973 10.8754 8.07599 10.986L11.217 14.1255L16.4265 7.48798C16.4359 7.47643 16.4444 7.46541 16.455 7.45498Z" fill="currentColor"/>
  </symbol>

  <symbol id="icon-user" viewBox="0 0 24 24" fill="none" xmlns="http://www.w3.org/2000/svg">
    <path d="M12 2C11.0111 2 10.0444 2.29324 9.22215 2.84265C8.3999 3.39206 7.75904 4.17295 7.3806 5.08658C7.00216 6.00021 6.90315 7.00555 7.09607 7.97545C7.289 8.94536 7.7652 9.83627 8.46447 10.5355C9.16373 11.2348 10.0546 11.711 11.0245 11.9039C11.9945 12.0969 12.9998 11.9978 13.9134 11.6194C14.827 11.241 15.6079 10.6001 16.1573 9.77785C16.7068 8.95561 17 7.98891 17 7C17 5.67392 16.4732 4.40215 15.5355 3.46447C14.5979 2.52678 13.3261 2 12 2ZM12 10C11.4067 10 10.8266 9.82405 10.3333 9.49441C9.83994 9.16476 9.45542 8.69623 9.22836 8.14805C9.0013 7.59987 8.94189 6.99667 9.05764 6.41473C9.1734 5.83279 9.45912 5.29824 9.87868 4.87868C10.2982 4.45912 10.8328 4.1734 11.4147 4.05764C11.9967 3.94189 12.5999 4.0013 13.1481 4.22836C13.6962 4.45542 14.1648 4.83994 14.4944 5.33329C14.8241 5.82664 15 6.40666 15 7C15 7.79565 14.6839 8.55871 14.1213 9.12132C13.5587 9.68393 12.7956 10 12 10ZM21 21V20C21 18.1435 20.2625 16.363 18.9497 15.0503C17.637 13.7375 15.8565 13 14 13H10C8.14348 13 6.36301 13.7375 5.05025 15.0503C3.7375 16.363 3 18.1435 3 20V21H5V20C5 18.6739 5.52678 17.4021 6.46447 16.4645C7.40215 15.5268 8.67392 15 10 15H14C15.3261 15 16.5979 15.5268 17.5355 16.4645C18.4732 17.4021 19 18.6739 19 20V21H21Z" fill="currentColor"/>
  </symbol>

</svg>