<!--
Add to HTML Code
<svg>
    <use xlink:href="/img/sprites.svg#icon-list"></use>
</svg>
-->
<svg>
<!-- width="34" height="36" -->
  <symbol id="icon-timer" viewBox="0 0 30 30" fill="none" xmlns="http://www.w3.org/2000/svg">
    <path d="M15.9548 3.03564C13.4826 3.03564 11.0658 3.76876 9.01021 5.14227C6.9546 6.51579 5.35244 8.46802 4.40635 10.7521C3.46025 13.0362 3.21271 15.5495 3.69502 17.9743C4.17734 20.399 5.36785 22.6263 7.116 24.3745C8.86416 26.1226 11.0914 27.3131 13.5162 27.7955C15.941 28.2778 18.4543 28.0302 20.7384 27.0841C23.0225 26.138 24.9747 24.5359 26.3482 22.4803C27.7217 20.4247 28.4548 18.0079 28.4548 15.5356C28.4548 13.8941 28.1315 12.2687 27.5033 10.7521C26.8752 9.23553 25.9544 7.85754 24.7937 6.69681C23.6329 5.53608 22.255 4.61533 20.7384 3.98715C19.2218 3.35897 17.5964 3.03564 15.9548 3.03564ZM15.9548 25.5356C13.977 25.5356 12.0436 24.9492 10.3991 23.8503C8.75465 22.7515 7.47292 21.1897 6.71604 19.3625C5.95917 17.5352 5.76113 15.5246 6.14699 13.5847C6.53284 11.6449 7.48525 9.8631 8.88377 8.46458C10.2823 7.06605 12.0641 6.11364 14.0039 5.72779C15.9437 5.34194 17.9544 5.53997 19.7817 6.29685C21.6089 7.05373 23.1707 8.33545 24.2695 9.97994C25.3683 11.6244 25.9548 13.5578 25.9548 15.5356C25.9548 18.1878 24.9013 20.7313 23.0259 22.6067C21.1505 24.4821 18.607 25.5356 15.9548 25.5356Z" fill="currentColor"/>
    <path d="M20.9548 14.2856H17.2048V10.5356C17.2048 10.2041 17.0731 9.88618 16.8387 9.65176C16.6043 9.41734 16.2864 9.28564 15.9548 9.28564C15.6233 9.28564 15.3054 9.41734 15.071 9.65176C14.8365 9.88618 14.7048 10.2041 14.7048 10.5356V15.5356C14.7048 15.8672 14.8365 16.1851 15.071 16.4195C15.3054 16.6539 15.6233 16.7856 15.9548 16.7856H20.9548C21.2864 16.7856 21.6043 16.6539 21.8387 16.4195C22.0731 16.1851 22.2048 15.8672 22.2048 15.5356C22.2048 15.2041 22.0731 14.8862 21.8387 14.6518C21.6043 14.4173 21.2864 14.2856 20.9548 14.2856Z" fill="currentColor"/>
  </symbol>

  <symbol id="icon-list" viewBox="0 0 30 30" fill="none" xmlns="http://www.w3.org/2000/svg">
    <path d="M5 10C5.69036 10 6.25 9.44036 6.25 8.75C6.25 8.05964 5.69036 7.5 5 7.5C4.30964 7.5 3.75 8.05964 3.75 8.75C3.75 9.44036 4.30964 10 5 10Z" fill="currentColor"/>
    <path d="M5 16.25C5.69036 16.25 6.25 15.6904 6.25 15C6.25 14.3096 5.69036 13.75 5 13.75C4.30964 13.75 3.75 14.3096 3.75 15C3.75 15.6904 4.30964 16.25 5 16.25Z" fill="currentColor"/>
    <path d="M5 22.5C5.69036 22.5 6.25 21.9404 6.25 21.25C6.25 20.5596 5.69036 20 5 20C4.30964 20 3.75 20.5596 3.75 21.25C3.75 21.9404 4.30964 22.5 5 22.5Z" fill="currentColor"/>
    <path d="M25.075 13.75H9.925C9.27607 13.75 8.75 14.2761 8.75 14.925V15.075C8.75 15.7239 9.27607 16.25 9.925 16.25H25.075C25.7239 16.25 26.25 15.7239 26.25 15.075V14.925C26.25 14.2761 25.7239 13.75 25.075 13.75Z" fill="currentColor"/>
    <path d="M25.075 20H9.925C9.27607 20 8.75 20.5261 8.75 21.175V21.325C8.75 21.9739 9.27607 22.5 9.925 22.5H25.075C25.7239 22.5 26.25 21.9739 26.25 21.325V21.175C26.25 20.5261 25.7239 20 25.075 20Z" fill="currentColor"/>
    <path d="M25.075 7.5H9.925C9.27607 7.5 8.75 8.02607 8.75 8.675V8.825C8.75 9.47393 9.27607 10 9.925 10H25.075C25.7239 10 26.25 9.47393 26.25 8.825V8.675C26.25 8.02607 25.7239 7.5 25.075 7.5Z" fill="currentColor"/>
  </symbol>

  <symbol id="icon-stats" viewBox="0 0 30 30" fill="none" xmlns="http://www.w3.org/2000/svg">
    <path d="M15 5C14.6685 5 14.3505 5.1317 14.1161 5.36612C13.8817 5.60054 13.75 5.91848 13.75 6.25V25C13.75 25.3315 13.8817 25.6495 14.1161 25.8839C14.3505 26.1183 14.6685 26.25 15 26.25C15.3315 26.25 15.6495 26.1183 15.8839 25.8839C16.1183 25.6495 16.25 25.3315 16.25 25V6.25C16.25 5.91848 16.1183 5.60054 15.8839 5.36612C15.6495 5.1317 15.3315 5 15 5Z" fill="currentColor"/>
    <path d="M23.75 15.0001C23.4185 15.0001 23.1005 15.1318 22.8661 15.3662C22.6317 15.6007 22.5 15.9186 22.5 16.2501V25.0001C22.5 25.3316 22.6317 25.6496 22.8661 25.884C23.1005 26.1184 23.4185 26.2501 23.75 26.2501C24.0815 26.2501 24.3995 26.1184 24.6339 25.884C24.8683 25.6496 25 25.3316 25 25.0001V16.2501C25 15.9186 24.8683 15.6007 24.6339 15.3662C24.3995 15.1318 24.0815 15.0001 23.75 15.0001Z" fill="currentColor"/>
    <path d="M6.25 10C5.91848 10 5.60054 10.1317 5.36612 10.3661C5.1317 10.6005 5 10.9185 5 11.25V25C5 25.3315 5.1317 25.6495 5.36612 25.8839C5.60054 26.1183 5.91848 26.25 6.25 26.25C6.58152 26.25 6.89946 26.1183 7.13388 25.8839C7.3683 25.6495 7.5 25.3315 7.5 25V11.25C7.5 10.9185 7.3683 10.6005 7.13388 10.3661C6.89946 10.1317 6.58152 10 6.25 10Z" fill="currentColor"/>
  </symbol>

  <symbol id="icon-trash" viewBox="0 0 31 31" fill="none" xmlns="http://www.w3.org/2000/svg">
    <path d="M26.5073 7.60243H20.2573V5.51493C20.228 4.71471 19.8826 3.95875 19.2968 3.4128C18.711 2.86684 17.9326 2.57542 17.1323 2.60243H13.3823C12.582 2.57542 11.8037 2.86684 11.2179 3.4128C10.6321 3.95875 10.2866 4.71471 10.2573 5.51493V7.60243H4.00732C3.6758 7.60243 3.35786 7.73413 3.12344 7.96855C2.88902 8.20297 2.75732 8.52091 2.75732 8.85243C2.75732 9.18395 2.88902 9.50189 3.12344 9.73632C3.35786 9.97074 3.6758 10.1024 4.00732 10.1024H5.25732V23.8524C5.25732 24.847 5.65241 25.8008 6.35567 26.5041C7.05894 27.2073 8.01276 27.6024 9.00732 27.6024H21.5073C22.5019 27.6024 23.4557 27.2073 24.159 26.5041C24.8622 25.8008 25.2573 24.847 25.2573 23.8524V10.1024H26.5073C26.8388 10.1024 27.1568 9.97074 27.3912 9.73632C27.6256 9.50189 27.7573 9.18395 27.7573 8.85243C27.7573 8.52091 27.6256 8.20297 27.3912 7.96855C27.1568 7.73413 26.8388 7.60243 26.5073 7.60243ZM12.7573 5.51493C12.7573 5.31493 13.0198 5.10243 13.3823 5.10243H17.1323C17.4948 5.10243 17.7573 5.31493 17.7573 5.51493V7.60243H12.7573V5.51493ZM22.7573 23.8524C22.7573 24.184 22.6256 24.5019 22.3912 24.7363C22.1568 24.9707 21.8388 25.1024 21.5073 25.1024H9.00732C8.6758 25.1024 8.35786 24.9707 8.12344 24.7363C7.88902 24.5019 7.75732 24.184 7.75732 23.8524V10.1024H22.7573V23.8524Z" fill="currentColor"/>
    <path d="M11.5073 21.3523C11.8388 21.3523 12.1568 21.2206 12.3912 20.9862C12.6256 20.7518 12.7573 20.4338 12.7573 20.1023V15.1023C12.7573 14.7708 12.6256 14.4528 12.3912 14.2184C12.1568 13.984 11.8388 13.8523 11.5073 13.8523C11.1758 13.8523 10.8579 13.984 10.6234 14.2184C10.389 14.4528 10.2573 14.7708 10.2573 15.1023V20.1023C10.2573 20.4338 10.389 20.7518 10.6234 20.9862C10.8579 21.2206 11.1758 21.3523 11.5073 21.3523Z" fill="currentColor"/>
    <path d="M19.0073 21.3523C19.3388 21.3523 19.6568 21.2206 19.8912 20.9862C20.1256 20.7518 20.2573 20.4338 20.2573 20.1023V15.1023C20.2573 14.7708 20.1256 14.4528 19.8912 14.2184C19.6568 13.984 19.3388 13.8523 19.0073 13.8523C18.6758 13.8523 18.3579 13.984 18.1234 14.2184C17.889 14.4528 17.7573 14.7708 17.7573 15.1023V20.1023C17.7573 20.4338 17.889 20.7518 18.1234 20.9862C18.3579 21.2206 18.6758 21.3523 19.0073 21.3523Z" fill="currentColor"/>
  </symbol>

  <symbol id="icon-plus" viewBox="0 0 24 24" fill="none" xmlns="http://www.w3.org/2000/svg">
    <path d="M19 13H13V19H11V13H5V11H11V5H13V11H19V13Z" fill="currentColor"/>
  </symbol>
</svg>