<!--
Add to HTML Code
<svg>
    <use xlink:href="/img/sprites.svg#icon-list"></use>
</svg>
-->
<svg>
<!-- width="34" height="36" -->
  <symbol id="timer" viewBox="0 0 34 36" fill="none" xmlns="http://www.w3.org/2000/svg">
    <g filter="url(#filter0_d_3_61)">
      <path d="M17 2.5C14.5277 2.5 12.111 3.23311 10.0554 4.60663C7.99976 5.98015 6.3976 7.93238 5.45151 10.2165C4.50541 12.5005 4.25787 15.0139 4.74018 17.4386C5.2225 19.8634 6.41301 22.0907 8.16117 23.8388C9.90932 25.587 12.1366 26.7775 14.5614 27.2598C16.9861 27.7421 19.4995 27.4946 21.7835 26.5485C24.0676 25.6024 26.0199 24.0002 27.3934 21.9446C28.7669 19.889 29.5 17.4723 29.5 15C29.5 13.3585 29.1767 11.733 28.5485 10.2165C27.9203 8.69989 26.9996 7.3219 25.8388 6.16117C24.6781 5.00043 23.3001 4.07969 21.7835 3.45151C20.267 2.82332 18.6415 2.5 17 2.5ZM17 25C15.0222 25 13.0888 24.4135 11.4443 23.3147C9.79981 22.2159 8.51808 20.6541 7.76121 18.8268C7.00433 16.9996 6.8063 14.9889 7.19215 13.0491C7.578 11.1093 8.53041 9.32746 9.92893 7.92893C11.3275 6.53041 13.1093 5.578 15.0491 5.19215C16.9889 4.8063 18.9996 5.00433 20.8268 5.7612C22.6541 6.51808 24.2159 7.79981 25.3147 9.4443C26.4135 11.0888 27 13.0222 27 15C27 17.6522 25.9464 20.1957 24.0711 22.0711C22.1957 23.9464 19.6522 25 17 25Z" fill="#231F20"/>
      <path d="M22 13.75H18.25V10C18.25 9.66848 18.1183 9.35054 17.8839 9.11612C17.6495 8.8817 17.3315 8.75 17 8.75C16.6685 8.75 16.3505 8.8817 16.1161 9.11612C15.8817 9.35054 15.75 9.66848 15.75 10V15C15.75 15.3315 15.8817 15.6495 16.1161 15.8839C16.3505 16.1183 16.6685 16.25 17 16.25H22C22.3315 16.25 22.6495 16.1183 22.8839 15.8839C23.1183 15.6495 23.25 15.3315 23.25 15C23.25 14.6685 23.1183 14.3505 22.8839 14.1161C22.6495 13.8817 22.3315 13.75 22 13.75Z" fill="#231F20"/>
    </g>
    <defs>
      <filter id="filter0_d_3_61" x="0.499995" y="2.5" width="33" height="33" filterUnits="userSpaceOnUse" color-interpolation-filters="sRGB">
        <feFlood flood-opacity="0" result="BackgroundImageFix"/>
        <feColorMatrix in="SourceAlpha" type="matrix" values="0 0 0 0 0 0 0 0 0 0 0 0 0 0 0 0 0 0 127 0" result="hardAlpha"/>
        <feOffset dy="4"/>
        <feGaussianBlur stdDeviation="2"/>
        <feComposite in2="hardAlpha" operator="out"/>
        <feColorMatrix type="matrix" values="0 0 0 0 0 0 0 0 0 0 0 0 0 0 0 0 0 0 0.25 0"/>
        <feBlend mode="normal" in2="BackgroundImageFix" result="effect1_dropShadow_3_61"/>
        <feBlend mode="normal" in="SourceGraphic" in2="effect1_dropShadow_3_61" result="shape"/>
      </filter>
    </defs>
  </symbol>
</svg>